<svg width="1280" height="945" xmlns="http://www.w3.org/2000/svg" xmlns:xlink="http://www.w3.org/1999/xlink" overflow="hidden"><defs><clipPath id="clip0"><rect x="0" y="0" width="1280" height="945"/></clipPath><clipPath id="clip1"><rect x="235" y="493" width="27" height="404"/></clipPath><clipPath id="clip2"><rect x="235" y="493" width="27" height="404"/></clipPath><clipPath id="clip3"><rect x="235" y="493" width="27" height="404"/></clipPath><clipPath id="clip4"><rect x="261" y="493" width="26" height="404"/></clipPath><clipPath id="clip5"><rect x="261" y="493" width="26" height="404"/></clipPath><clipPath id="clip6"><rect x="261" y="493" width="26" height="404"/></clipPath><clipPath id="clip7"><rect x="286" y="493" width="26" height="404"/></clipPath><clipPath id="clip8"><rect x="286" y="493" width="26" height="404"/></clipPath><clipPath id="clip9"><rect x="286" y="493" width="26" height="404"/></clipPath><clipPath id="clip10"><rect x="311" y="493" width="26" height="404"/></clipPath><clipPath id="clip11"><rect x="311" y="493" width="26" height="404"/></clipPath><clipPath id="clip12"><rect x="311" y="493" width="26" height="404"/></clipPath><clipPath id="clip13"><rect x="336" y="493" width="29" height="404"/></clipPath><clipPath id="clip14"><rect x="336" y="493" width="29" height="404"/></clipPath><clipPath id="clip15"><rect x="336" y="493" width="29" height="404"/></clipPath><clipPath id="clip16"><rect x="364" y="493" width="26" height="404"/></clipPath><clipPath id="clip17"><rect x="364" y="493" width="26" height="404"/></clipPath><clipPath id="clip18"><rect x="364" y="493" width="26" height="404"/></clipPath></defs><g clip-path="url(#clip0)"><rect x="0" y="0" width="1280" height="945.167" fill="#FFFFFF"/><text font-family="Calibri,Calibri_MSFontService,sans-serif" font-weight="400" font-size="24" transform="matrix(1 0 0 1.00018 182.796 74)">TCP<tspan font-family="DengXian,DengXian_MSFontService,sans-serif" font-size="24" x="36.34" y="0">三次握手</tspan><tspan font-size="24" x="749.643" y="236.958">TCP</tspan><tspan font-family="DengXian,DengXian_MSFontService,sans-serif" font-size="24" x="785.983" y="236.958">四次挥手</tspan></text><path d="M117.5 111.186C117.5 107.504 120.485 104.518 124.167 104.518L192.833 104.518C196.515 104.518 199.5 107.504 199.5 111.186L199.5 137.858C199.5 141.54 196.515 144.526 192.833 144.526L124.167 144.526C120.485 144.526 117.5 141.54 117.5 137.858Z" stroke="#000000" stroke-width="1.33333" stroke-miterlimit="8" fill="#8FAADC" fill-rule="evenodd"/><text font-family="Calibri,Calibri_MSFontService,sans-serif" font-weight="400" font-size="24" transform="matrix(1 0 0 1.00018 129.541 132)">Client</text><path d="M325.5 111.186C325.5 107.504 328.485 104.518 332.167 104.518L407.833 104.518C411.515 104.518 414.5 107.504 414.5 111.186L414.5 137.858C414.5 141.54 411.515 144.526 407.833 144.526L332.167 144.526C328.485 144.526 325.5 141.54 325.5 137.858Z" stroke="#000000" stroke-width="1.33333" stroke-miterlimit="8" fill="#8FAADC" fill-rule="evenodd"/><text font-family="Calibri,Calibri_MSFontService,sans-serif" font-weight="400" font-size="24" transform="matrix(1 0 0 1.00018 338.248 132)">Server</text><path d="M158 144.025 158 434.182" stroke="#000000" stroke-width="2" stroke-miterlimit="8" fill="none" fill-rule="evenodd"/><path d="M0 0 0.000524934 299.054" stroke="#000000" stroke-width="2" stroke-miterlimit="8" fill="none" fill-rule="evenodd" transform="matrix(-1 0 0 1.00018 369.001 144.025)"/><path d="M158.566 177.868 363.741 198.178 363.61 199.505 158.434 179.195ZM362.742 194.729 370.31 199.498 361.955 202.691Z"/><path d="M158.566 382.904 363.741 403.214 363.61 404.541 158.434 384.231ZM362.742 399.765 370.31 404.534 361.955 407.728Z"/><path d="M0.0727653-0.662684 205.256 21.8672 205.11 23.1926-0.0727653 0.662684ZM204.294 18.4082 211.81 23.2575 203.421 26.3605Z" transform="matrix(-1 0 0 1.00018 370.31 285.55)"/><text font-family="Calibri,Calibri_MSFontService,sans-serif" font-weight="400" font-size="13" transform="matrix(1 0 0 1.00018 211.758 176)">SYN=1    seq=x<tspan font-size="13" x="-48.2102" y="98.9825">SYN=1    ACK=1   ack=x+1   seq=y</tspan><tspan font-size="13" x="-35.7016" y="192.966">ACK=1    seq=x+1   ack=y+1</tspan></text><path d="M850.5 390.069C850.5 386.478 853.41 383.568 857 383.568L947 383.568C950.59 383.568 953.5 386.478 953.5 390.069L953.5 416.073C953.5 419.664 950.59 422.575 947 422.575L857 422.575C853.41 422.575 850.5 419.664 850.5 416.073Z" stroke="#000000" stroke-width="1.33333" stroke-miterlimit="8" fill="#8FAADC" fill-rule="evenodd"/><text font-family="DengXian,DengXian_MSFontService,sans-serif" font-weight="400" font-size="24" transform="matrix(1 0 0 1.00018 865.091 410)">主动方</text><path d="M1067.5 389.069C1067.5 385.478 1070.41 382.568 1074 382.568L1156 382.568C1159.59 382.568 1162.5 385.478 1162.5 389.069L1162.5 415.073C1162.5 418.664 1159.59 421.574 1156 421.574L1074 421.574C1070.41 421.574 1067.5 418.664 1067.5 415.073Z" stroke="#000000" stroke-width="1.33333" stroke-miterlimit="8" fill="#8FAADC" fill-rule="evenodd"/><text font-family="DengXian,DengXian_MSFontService,sans-serif" font-weight="400" font-size="24" transform="matrix(1 0 0 1.00018 1078.69 409)">被动方</text><path d="M0 0 0.974278 431.79" stroke="#000000" stroke-width="2" stroke-miterlimit="8" fill="none" fill-rule="evenodd" transform="matrix(-1 0 0 1.00018 900.974 422.074)"/><path d="M0 0 1.94824 432.629" stroke="#000000" stroke-width="2" stroke-miterlimit="8" fill="none" fill-rule="evenodd" transform="matrix(-1 0 0 1.00018 1114.95 421.074)"/><path d="M901.591 461.921 1108.58 490.346 1108.4 491.667 901.409 463.242ZM1107.71 486.862 1115.09 491.914 1106.63 494.789Z"/><path d="M899.591 721.967 1106.58 750.392 1106.4 751.713 899.409 723.288ZM1105.71 746.907 1113.09 751.959 1104.63 754.835Z"/><path d="M0.0725953-0.662702 207.04 22.0094 206.895 23.3348-0.0725953 0.662702ZM206.078 18.5508 213.595 23.3981 205.207 26.5032Z" transform="matrix(-1 0 0 1.00018 1115.09 557.598)"/><path d="M0.0725953-0.662702 207.04 22.0094 206.895 23.3348-0.0725953 0.662702ZM206.078 18.5508 213.595 23.3981 205.207 26.5032Z" transform="matrix(-1 0 0 1.00018 1113.09 627.611)"/><text font-family="Calibri,Calibri_MSFontService,sans-serif" font-weight="400" font-size="13" transform="matrix(1 0 0 1.00018 959.465 457)">FIN=1    seq=u<tspan font-size="13" x="-23.9162" y="84.985">ACK=1   seq=v   ack=u+1</tspan><tspan font-size="13" x="-46.6672" y="162.971">FIN=1   ACK=1   seq=w   ack=u+1</tspan><tspan font-size="13" x="-32.7595" y="256.955">ACK=1   seq=u+1   ack=w+1</tspan><tspan font-weight="700" font-size="16" x="-181.648" y="50.991">FINAL_WAIT_1</tspan><tspan font-weight="700" font-size="16" x="-180.689" y="161.971">FINAL_WAIT_2</tspan><tspan font-weight="700" font-size="16" x="-167.201" y="304.946">TIME_WAIT</tspan><tspan font-weight="700" font-size="16" x="166.769" y="225.96">LAST_ACK</tspan><tspan font-weight="700" font-size="16" x="166.769" y="364.936">CLOSE</tspan><tspan font-weight="700" font-size="16" x="-143.008" y="387.932">CLOSE</tspan></text><path d="M0.666556-0.0121669 1.51895 46.6858 0.185843 46.7102-0.666556 0.0121669ZM4.8274 45.2919 0.974068 53.3636-3.17127 45.4379Z" transform="matrix(-1 0 0 1.00018 850.474 771.636)"/><text font-family="Calibri,Calibri_MSFontService,sans-serif" font-weight="400" font-size="13" transform="matrix(1 0 0 1.00018 772.088 802)">Wait 2ms</text><path d="M145.841 660.435 145.841 730.629" stroke="#000000" stroke-width="1.33333" stroke-linejoin="round" stroke-miterlimit="10" fill="none" fill-rule="evenodd"/><path d="M235.952 660.435 235.952 730.629" stroke="#000000" stroke-width="1.33333" stroke-linejoin="round" stroke-miterlimit="10" fill="none" fill-rule="evenodd"/><path d="M261.046 660.435 261.046 730.629" stroke="#000000" stroke-width="1.33333" stroke-linejoin="round" stroke-miterlimit="10" fill="none" fill-rule="evenodd"/><path d="M286.14 660.435 286.14 730.629" stroke="#000000" stroke-width="1.33333" stroke-linejoin="round" stroke-miterlimit="10" fill="none" fill-rule="evenodd"/><path d="M311.235 660.435 311.235 730.629" stroke="#000000" stroke-width="1.33333" stroke-linejoin="round" stroke-miterlimit="10" fill="none" fill-rule="evenodd"/><path d="M336.329 660.435 336.329 730.629" stroke="#000000" stroke-width="1.33333" stroke-linejoin="round" stroke-miterlimit="10" fill="none" fill-rule="evenodd"/><path d="M364.279 660.435 364.279 730.629" stroke="#000000" stroke-width="1.33333" stroke-linejoin="round" stroke-miterlimit="10" fill="none" fill-rule="evenodd"/><path d="M389.373 542.387 389.373 583.07" stroke="#000000" stroke-width="1.33333" stroke-linejoin="round" stroke-miterlimit="10" fill="none" fill-rule="evenodd"/><path d="M389.373 660.435 389.373 769.978" stroke="#000000" stroke-width="1.33333" stroke-linejoin="round" stroke-miterlimit="10" fill="none" fill-rule="evenodd"/><path d="M549.824 768.645 549.824 809.328" stroke="#000000" stroke-width="1.33333" stroke-linejoin="round" stroke-miterlimit="10" fill="none" fill-rule="evenodd"/><path d="M64.9483 582.403 710.941 582.403" stroke="#000000" stroke-width="1.33333" stroke-linejoin="round" stroke-miterlimit="10" fill="none" fill-rule="evenodd"/><path d="M64.9483 621.752 710.941 621.752" stroke="#000000" stroke-width="1.33333" stroke-linejoin="round" stroke-miterlimit="10" fill="none" fill-rule="evenodd"/><path d="M64.9483 661.101 710.941 661.101" stroke="#000000" stroke-width="1.33333" stroke-linejoin="round" stroke-miterlimit="10" fill="none" fill-rule="evenodd"/><path d="M64.9483 729.962 710.941 729.962" stroke="#000000" stroke-width="1.33333" stroke-linejoin="round" stroke-miterlimit="10" fill="none" fill-rule="evenodd"/><path d="M64.9483 769.312 710.941 769.312" stroke="#000000" stroke-width="1.33333" stroke-linejoin="round" stroke-miterlimit="10" fill="none" fill-rule="evenodd"/><path d="M64.9483 808.661 710.941 808.661" stroke="#000000" stroke-width="1.33333" stroke-linejoin="round" stroke-miterlimit="10" fill="none" fill-rule="evenodd"/><path d="M65.615 542.387 65.615 875.878" stroke="#000000" stroke-width="1.33333" stroke-linejoin="round" stroke-miterlimit="10" fill="none" fill-rule="evenodd"/><path d="M710.275 542.387 710.275 875.878" stroke="#000000" stroke-width="1.33333" stroke-linejoin="round" stroke-miterlimit="10" fill="none" fill-rule="evenodd"/><path d="M64.9483 543.054 710.941 543.054" stroke="#000000" stroke-width="1.33333" stroke-linejoin="round" stroke-miterlimit="10" fill="none" fill-rule="evenodd"/><path d="M64.9483 875.211 710.941 875.211" stroke="#000000" stroke-width="1.33333" stroke-linejoin="round" stroke-miterlimit="10" fill="none" fill-rule="evenodd"/><text font-family="DengXian,DengXian_MSFontService,sans-serif" font-weight="700" font-size="24" transform="matrix(1 0 0 1.00018 191.494 570)">源端口<tspan font-size="24" x="310.33" y="0">目的端口</tspan><tspan font-weight="400" font-size="24" x="137.034" y="38.9931">序号</tspan><tspan font-family="Calibri,Calibri_MSFontService,sans-serif" font-weight="400" font-size="24" x="190.534" y="38.9931">(seq</tspan><tspan font-weight="400" font-size="24" x="231.868" y="38.9931">）</tspan><tspan font-weight="400" font-size="24" x="134.118" y="78.9861">确认号</tspan><tspan font-family="Calibri,Calibri_MSFontService,sans-serif" font-weight="400" font-size="24" x="211.618" y="78.9861">(ack)</tspan><tspan font-weight="400" font-size="24" x="-109.766" y="117.979">数据</tspan><tspan font-weight="400" font-size="24" x="-109.766" y="146.974">偏移</tspan><tspan font-weight="400" font-size="24" x="-24.5977" y="117.979">保留</tspan><tspan font-weight="400" font-size="24" x="-24.5977" y="146.974">部分</tspan></text><g clip-path="url(#clip1)"><text font-family="Calibri,Calibri_MSFontService,sans-serif" font-weight="700" font-size="16" transform="matrix(1 0 0 1.00018 243.249 681)">U</text></g><g clip-path="url(#clip2)"><text font-family="Calibri,Calibri_MSFontService,sans-serif" font-weight="700" font-size="16" transform="matrix(1 0 0 1.00018 243.249 700)">R</text></g><g clip-path="url(#clip3)"><text font-family="Calibri,Calibri_MSFontService,sans-serif" font-weight="700" font-size="16" transform="matrix(1 0 0 1.00018 243.249 719)">G</text></g><g clip-path="url(#clip4)"><text font-family="Calibri,Calibri_MSFontService,sans-serif" font-weight="700" font-size="16" transform="matrix(1 0 0 1.00018 268.76 681)">A</text></g><g clip-path="url(#clip5)"><text font-family="Calibri,Calibri_MSFontService,sans-serif" font-weight="700" font-size="16" transform="matrix(1 0 0 1.00018 268.76 700)">C</text></g><g clip-path="url(#clip6)"><text font-family="Calibri,Calibri_MSFontService,sans-serif" font-weight="700" font-size="16" transform="matrix(1 0 0 1.00018 268.76 719)">K</text></g><g clip-path="url(#clip7)"><text font-family="Calibri,Calibri_MSFontService,sans-serif" font-weight="700" font-size="16" transform="matrix(1 0 0 1.00018 293.604 681)">P</text></g><g clip-path="url(#clip8)"><text font-family="Calibri,Calibri_MSFontService,sans-serif" font-weight="700" font-size="16" transform="matrix(1 0 0 1.00018 293.604 700)">S</text></g><g clip-path="url(#clip9)"><text font-family="Calibri,Calibri_MSFontService,sans-serif" font-weight="700" font-size="16" transform="matrix(1 0 0 1.00018 293.604 719)">H</text></g><g clip-path="url(#clip10)"><text font-family="Calibri,Calibri_MSFontService,sans-serif" font-weight="700" font-size="16" transform="matrix(1 0 0 1.00018 319.282 681)">R</text></g><g clip-path="url(#clip11)"><text font-family="Calibri,Calibri_MSFontService,sans-serif" font-weight="700" font-size="16" transform="matrix(1 0 0 1.00018 319.282 700)">S</text></g><g clip-path="url(#clip12)"><text font-family="Calibri,Calibri_MSFontService,sans-serif" font-weight="700" font-size="16" transform="matrix(1 0 0 1.00018 319.282 719)">T</text></g><g clip-path="url(#clip13)"><text font-family="Calibri,Calibri_MSFontService,sans-serif" font-weight="700" font-size="16" transform="matrix(1 0 0 1.00018 345.634 681)">S</text></g><g clip-path="url(#clip14)"><text font-family="Calibri,Calibri_MSFontService,sans-serif" font-weight="700" font-size="16" transform="matrix(1 0 0 1.00018 345.22 700)">Y</text></g><g clip-path="url(#clip15)"><text font-family="Calibri,Calibri_MSFontService,sans-serif" font-weight="700" font-size="16" transform="matrix(1 0 0 1.00018 345.054 719)">N</text></g><g clip-path="url(#clip16)"><text font-family="Calibri,Calibri_MSFontService,sans-serif" font-weight="700" font-size="16" transform="matrix(1 0 0 1.00018 371.576 681)">F</text></g><g clip-path="url(#clip17)"><text font-family="Calibri,Calibri_MSFontService,sans-serif" font-weight="700" font-size="16" transform="matrix(1 0 0 1.00018 372.323 700)">I</text></g><g clip-path="url(#clip18)"><text font-family="Calibri,Calibri_MSFontService,sans-serif" font-weight="700" font-size="16" transform="matrix(1 0 0 1.00018 371.576 719)">N</text></g><text font-family="DengXian,DengXian_MSFontService,sans-serif" font-weight="400" font-size="24" transform="matrix(1 0 0 1.00018 525.824 688)">窗口<tspan font-size="24" x="-334.33" y="68.9878">检验和</tspan><tspan font-size="24" x="-24" y="68.9878">紧急指针</tspan><tspan font-size="24" x="-314.104" y="107.981">选项（长度可变）</tspan><tspan font-size="24" x="80.2254" y="107.981">填充</tspan><tspan font-family="Calibri,Calibri_MSFontService,sans-serif" font-size="24" x="-240.049" y="161.971">TCP</tspan>报文的数据部分<tspan font-family="Calibri,Calibri_MSFontService,sans-serif" font-size="24" x="-220.198" y="-202.964">TCP </tspan>报文头部<tspan font-family="Calibri,Calibri_MSFontService,sans-serif" font-size="24" x="-468.224" y="-157.972">0</tspan><tspan font-family="Calibri,Calibri_MSFontService,sans-serif" font-size="24" x="-149.846" y="-158.972">16</tspan><tspan font-family="Calibri,Calibri_MSFontService,sans-serif" font-size="24" x="168.18" y="-156.972">31</tspan><tspan font-family="SimSun,SimSun_MSFontService,sans-serif" font-size="21" x="-68.8201" y="-536.905">2</tspan><tspan font-family="SimSun,SimSun_MSFontService,sans-serif" font-size="21" x="-58.1534" y="-536.905">个序号：</tspan><tspan font-family="SimSun,SimSun_MSFontService,sans-serif" font-size="21" x="-68.8201" y="-510.91">1.seq(sequence number) : </tspan><tspan font-family="SimSun,SimSun_MSFontService,sans-serif" font-size="21" x="197.847" y="-510.91">顺序号</tspan><tspan font-family="SimSun,SimSun_MSFontService,sans-serif" font-size="21" x="-68.8201" y="-485.914">2.ack(acknowledge number) : </tspan><tspan font-family="SimSun,SimSun_MSFontService,sans-serif" font-size="21" x="229.847" y="-485.914">确认号，响应</tspan><tspan font-family="SimSun,SimSun_MSFontService,sans-serif" font-size="21" x="-68.8201" y="-459.919">前面的</tspan><tspan font-family="SimSun,SimSun_MSFontService,sans-serif" font-size="21" x="-4.82013" y="-459.919">seq</tspan><tspan font-family="SimSun,SimSun_MSFontService,sans-serif" font-size="21" x="27.1799" y="-459.919">，为接收的</tspan><tspan font-family="SimSun,SimSun_MSFontService,sans-serif" font-size="21" x="133.847" y="-459.919">seq</tspan><tspan font-family="SimSun,SimSun_MSFontService,sans-serif" font-size="21" x="165.847" y="-459.919">值</tspan><tspan font-family="SimSun,SimSun_MSFontService,sans-serif" font-size="21" x="187.18" y="-459.919">+1</tspan><tspan font-family="SimSun,SimSun_MSFontService,sans-serif" font-size="21" x="208.513" y="-459.919">。</tspan><tspan font-family="SimSun,SimSun_MSFontService,sans-serif" font-size="21" x="-68.8201" y="-408.928">6</tspan><tspan font-family="SimSun,SimSun_MSFontService,sans-serif" font-size="21" x="-58.1534" y="-408.928">个标记位：</tspan><tspan font-family="SimSun,SimSun_MSFontService,sans-serif" font-size="21" x="-68.8201" y="-382.932">1.URG(urgent) : </tspan><tspan font-family="SimSun,SimSun_MSFontService,sans-serif" font-size="21" x="101.847" y="-382.932">紧急标志</tspan><tspan font-family="SimSun,SimSun_MSFontService,sans-serif" font-size="21" x="-68.8201" y="-357.937">2.ACK(acknowledgement) : </tspan><tspan font-family="SimSun,SimSun_MSFontService,sans-serif" font-size="21" x="197.847" y="-357.937">确认标志</tspan><tspan font-family="SimSun,SimSun_MSFontService,sans-serif" font-size="21" x="-68.8201" y="-331.941">3.PSH(push) : </tspan><tspan font-family="SimSun,SimSun_MSFontService,sans-serif" font-size="21" x="80.5132" y="-331.941">表示推送操作</tspan><tspan font-family="SimSun,SimSun_MSFontService,sans-serif" font-size="21" x="-68.8201" y="-306.946">4.RST(reset) : </tspan><tspan font-family="SimSun,SimSun_MSFontService,sans-serif" font-size="21" x="91.1799" y="-306.946">重置复位标志</tspan><tspan font-family="SimSun,SimSun_MSFontService,sans-serif" font-size="21" x="-68.8201" y="-280.95">5.SYN(synchronous) : </tspan><tspan font-family="SimSun,SimSun_MSFontService,sans-serif" font-size="21" x="155.18" y="-280.95">发送</tspan><tspan font-family="SimSun,SimSun_MSFontService,sans-serif" font-size="21" x="197.847" y="-280.95">/</tspan><tspan font-family="SimSun,SimSun_MSFontService,sans-serif" font-size="21" x="208.513" y="-280.95">同步标志</tspan><tspan font-family="SimSun,SimSun_MSFontService,sans-serif" font-size="21" x="-68.8201" y="-254.955">6.FIN (finish): </tspan><tspan font-family="SimSun,SimSun_MSFontService,sans-serif" font-size="21" x="101.847" y="-254.955">结束标志</tspan></text></g></svg>