<svg width="1280" height="1323" xmlns="http://www.w3.org/2000/svg" xmlns:xlink="http://www.w3.org/1999/xlink" overflow="hidden"><defs><clipPath id="clip0"><rect x="0" y="0" width="1280" height="1323"/></clipPath></defs><g clip-path="url(#clip0)"><rect x="0" y="0" width="1280" height="1323.17" fill="#FFFFFF"/><text font-family="SimSun,SimSun_MSFontService,sans-serif" font-weight="400" font-size="24" transform="matrix(1 0 0 1.00013 221.102 181)">TCP <tspan font-size="24" x="48" y="0">客户端</tspan></text><path d="M189.5 217.861C189.5 212.706 193.679 208.526 198.834 208.526L370.166 208.526C375.321 208.526 379.5 212.706 379.5 217.861L379.5 255.199C379.5 260.354 375.321 264.533 370.166 264.533L198.834 264.533C193.679 264.533 189.5 260.354 189.5 255.199Z" stroke="#000000" stroke-width="1.33333" stroke-miterlimit="8" fill="#B4C7E7" fill-rule="evenodd"/><text font-family="Calibri,Calibri_MSFontService,sans-serif" font-weight="400" font-size="21" transform="matrix(1 0 0 1.00013 222.657 230)">1.<tspan font-family="DengXian,DengXian_MSFontService,sans-serif" font-size="21" x="16.1667" y="0">建立套接字</tspan><tspan font-size="21" x="12.4" y="25.9967">socket</tspan><tspan font-family="DengXian,DengXian_MSFontService,sans-serif" font-size="21" x="67.7667" y="25.9967">（）</tspan></text><path d="M189.5 331.875C189.5 326.72 193.679 322.541 198.834 322.541L370.166 322.541C375.321 322.541 379.5 326.72 379.5 331.875L379.5 369.213C379.5 374.368 375.321 378.548 370.166 378.548L198.834 378.548C193.679 378.548 189.5 374.368 189.5 369.213Z" stroke="#000000" stroke-width="1.33333" stroke-miterlimit="8" fill="#B4C7E7" fill-rule="evenodd"/><text font-family="Calibri,Calibri_MSFontService,sans-serif" font-weight="400" font-size="21" transform="matrix(1 0 0 1.00013 222.657 344)">2.<tspan font-family="DengXian,DengXian_MSFontService,sans-serif" font-size="21" x="16.1667" y="0">连接服务器</tspan><tspan font-size="21" x="20.2533" y="25.9967">connect()</tspan></text><path d="M176.5 447.89C176.5 441.63 181.574 436.555 187.834 436.555L381.166 436.555C387.426 436.555 392.5 441.63 392.5 447.89L392.5 493.229C392.5 499.489 387.426 504.564 381.166 504.564L187.834 504.564C181.574 504.564 176.5 499.489 176.5 493.229Z" stroke="#000000" stroke-width="1.33333" stroke-miterlimit="8" fill="#B4C7E7" fill-rule="evenodd"/><text font-family="Calibri,Calibri_MSFontService,sans-serif" font-weight="400" font-size="21" transform="matrix(1 0 0 1.00013 190.657 465)">3.<tspan font-family="DengXian,DengXian_MSFontService,sans-serif" font-size="21" x="16.1667" y="0">向服务器发送数据</tspan><tspan font-size="21" x="66.2533" y="25.9967">send()</tspan></text><path d="M176.5 574.073C176.5 567.72 181.649 562.571 188 562.571L381 562.571C387.351 562.571 392.5 567.72 392.5 574.073L392.5 620.078C392.5 626.43 387.351 631.58 381 631.58L188 631.58C181.649 631.58 176.5 626.43 176.5 620.078Z" stroke="#000000" stroke-width="1.33333" stroke-miterlimit="8" fill="#B4C7E7" fill-rule="evenodd"/><text font-family="Calibri,Calibri_MSFontService,sans-serif" font-weight="400" font-size="21" transform="matrix(1 0 0 1.00013 201.323 591)">4.<tspan font-family="DengXian,DengXian_MSFontService,sans-serif" font-size="21" x="16.1667" y="0">接收服务端数据</tspan><tspan font-size="21" x="57.9733" y="25.9967">recv</tspan><tspan font-size="21" x="94.5267" y="25.9967">()</tspan></text><path d="M189.5 698.922C189.5 693.766 193.679 689.587 198.834 689.587L370.166 689.587C375.321 689.587 379.5 693.766 379.5 698.922L379.5 736.259C379.5 741.415 375.321 745.594 370.166 745.594L198.834 745.594C193.679 745.594 189.5 741.415 189.5 736.259Z" stroke="#000000" stroke-width="1.33333" stroke-miterlimit="8" fill="#B4C7E7" fill-rule="evenodd"/><text font-family="Calibri,Calibri_MSFontService,sans-serif" font-weight="400" font-size="21" transform="matrix(1 0 0 1.00013 226.973 711)">5.<tspan font-family="DengXian,DengXian_MSFontService,sans-serif" font-size="21" x="16.1667" y="0">关闭</tspan><tspan font-size="21" x="58.8333" y="0">socket</tspan><tspan font-size="21" x="28.52" y="25.9967">close()</tspan></text><path d="M285 264.033 285 315.332 283 315.332 283 264.033ZM288 313.999 284 322 280 313.999Z" fill="#4472C4"/><path d="M285 378.048 285 429.347 283 429.347 283 378.048ZM288 428.013 284 436.014 280 428.013Z" fill="#4472C4"/><path d="M285 504.064 285 555.362 283 555.362 283 504.064ZM288 554.029 284 562.03 280 554.029Z" fill="#4472C4"/><path d="M285 631.08 285 682.378 283 682.378 283 631.08ZM288 681.045 284 689.046 280 681.045Z" fill="#4472C4"/><text font-family="SimSun,SimSun_MSFontService,sans-serif" font-weight="400" font-size="24" transform="matrix(1 0 0 1.00013 706.46 79)">TCP 服务端(使用生产者消<tspan font-size="24" x="0" y="28.9963">费者模式，提高处理效率</tspan>)</text><path d="M721.5 161.854C721.5 158.356 724.336 155.52 727.833 155.52L951.167 155.52C954.664 155.52 957.5 158.356 957.5 161.854L957.5 187.19C957.5 190.689 954.664 193.524 951.167 193.524L727.833 193.524C724.336 193.524 721.5 190.689 721.5 187.19Z" stroke="#000000" stroke-width="1.33333" stroke-miterlimit="8" fill="#B4C7E7" fill-rule="evenodd"/><text font-family="Calibri,Calibri_MSFontService,sans-serif" font-weight="400" font-size="21" transform="matrix(1 0 0 1.00013 726.091 181)">1.<tspan font-family="DengXian,DengXian_MSFontService,sans-serif" font-size="21" x="16.1666" y="0">建立套接字</tspan><tspan font-size="21" x="127.667" y="0">socket</tspan><tspan font-family="DengXian,DengXian_MSFontService,sans-serif" font-size="21" x="183.033" y="0">（）</tspan></text><path d="M735.5 243.031C735.5 239.44 738.41 236.53 742 236.53L937 236.53C940.59 236.53 943.5 239.44 943.5 243.031L943.5 269.034C943.5 272.624 940.59 275.535 937 275.535L742 275.535C738.41 275.535 735.5 272.624 735.5 269.034Z" stroke="#000000" stroke-width="1.33333" stroke-miterlimit="8" fill="#B4C7E7" fill-rule="evenodd"/><text font-family="Calibri,Calibri_MSFontService,sans-serif" font-weight="400" font-size="21" transform="matrix(1 0 0 1.00013 760.107 263)">2.<tspan font-family="DengXian,DengXian_MSFontService,sans-serif" font-size="21" x="16.1666" y="0">绑定端口</tspan><tspan font-size="21" x="106.333" y="0">bind()</tspan></text><path d="M735.5 324.041C735.5 320.451 738.41 317.54 742 317.54L937 317.54C940.59 317.54 943.5 320.451 943.5 324.041L943.5 350.044C943.5 353.634 940.59 356.545 937 356.545L742 356.545C738.41 356.545 735.5 353.634 735.5 350.044Z" stroke="#000000" stroke-width="1.33333" stroke-miterlimit="8" fill="#B4C7E7" fill-rule="evenodd"/><text font-family="Calibri,Calibri_MSFontService,sans-serif" font-weight="400" font-size="21" transform="matrix(1 0 0 1.00013 756.007 344)">3.<tspan font-family="DengXian,DengXian_MSFontService,sans-serif" font-size="21" x="16.1667" y="0">监听端口</tspan><tspan font-size="21" x="106.333" y="0">listen()</tspan></text><path d="M735.5 429.054 839.5 399.55 943.5 429.054 839.5 458.558Z" stroke="#000000" stroke-width="1.33333" stroke-miterlimit="8" fill="#B4C7E7" fill-rule="evenodd"/><text font-family="SimSun,SimSun_MSFontService,sans-serif" font-weight="400" font-size="21" transform="matrix(1 0 0 1.00013 796.274 438)">Select()</text><path d="M707.5 507.064C707.5 503.474 710.41 500.563 714 500.563L965 500.563C968.59 500.563 971.5 503.474 971.5 507.064L971.5 533.067C971.5 536.657 968.59 539.568 965 539.568L714 539.568C710.41 539.568 707.5 536.657 707.5 533.067Z" stroke="#000000" stroke-width="1.33333" stroke-miterlimit="8" fill="#B4C7E7" fill-rule="evenodd"/><text font-family="Calibri,Calibri_MSFontService,sans-serif" font-weight="400" font-size="21" transform="matrix(1 0 0 1.00013 718.738 527)">4.<tspan font-family="DengXian,DengXian_MSFontService,sans-serif" font-size="21" x="16.1666" y="0">接收客户端连接</tspan><tspan font-size="21" x="170.333" y="0">accept()</tspan></text><path d="M1-2.46314e-06 1.00009 35.9565-0.999911 35.9565-1 2.46314e-06ZM4.00009 34.6232 0.000104987 42.6232-3.99991 34.6232Z" fill="#4472C4" transform="matrix(-1 0 0 1.00013 839 193.024)"/><path d="M840 275.035 840 310.996 838 310.996 838 275.035ZM843 309.662 839 317.663 835 309.662Z" fill="#4472C4"/><path d="M840 356.045 840 392.006 838 392.006 838 356.045ZM843 390.672 839 398.673 835 390.672Z" fill="#4472C4"/><path d="M840 458.058 840 494.019 838 494.019 838 458.058ZM843 492.685 839 500.686 835 492.685Z" fill="#4472C4"/><path d="M0 0 52.0009 0.000104987" stroke="#4472C4" stroke-width="2" stroke-miterlimit="8" fill="none" fill-rule="evenodd" transform="matrix(1 0 0 -1.00013 971 520.066)"/><path d="M0 0 0.000104987 91.5822" stroke="#4472C4" stroke-width="2" stroke-miterlimit="8" fill="none" fill-rule="evenodd" transform="matrix(1 0 0 -1.00013 1023 519.648)"/><path d="M1.31351e-06-1 73.2617-0.999904 73.2617 1.0001-1.31351e-06 1ZM71.9284-3.99991 79.9284 0.000104987 71.9284 4.00009Z" fill="#4472C4" transform="matrix(-1 0 0 1.00013 1022.93 428.054)"/><text font-family="DengXian,DengXian_MSFontService,sans-serif" font-weight="400" font-size="24" transform="matrix(1 0 0 1.00013 1045.9 473)">循环</text><path d="M379.215 349.067 728.572 426.052 728.142 428.005 378.785 351.021ZM727.915 422.835 734.867 428.463 726.194 430.648Z" fill="#4472C4"/><text font-family="DengXian,DengXian_MSFontService,sans-serif" font-weight="400" font-size="21" transform="matrix(1 0 0 1.00013 494.835 354)">三次握手，连接<tspan font-size="21" x="42.6667" y="25.9967">服务器</tspan></text><path d="M759.5 627.079C759.5 608.023 795.093 592.575 839 592.575 882.907 592.575 918.5 608.023 918.5 627.079 918.5 646.135 882.907 661.583 839 661.583 795.093 661.583 759.5 646.135 759.5 627.079Z" stroke="#000000" stroke-width="1.33333" stroke-miterlimit="8" fill="#B4C7E7" fill-rule="evenodd"/><text font-family="Calibri,Calibri_MSFontService,sans-serif" font-weight="400" font-size="21" transform="matrix(1 0 0 1.00013 801.494 634)">TCP<tspan font-family="DengXian,DengXian_MSFontService,sans-serif" font-size="21" x="32.2266" y="0">连接</tspan></text><path d="M1-7.96296e-06 1.00037 46.071-0.999633 46.071-1 7.96296e-06ZM4.00036 44.7376 0.000419947 52.7376-3.99964 44.7377Z" fill="#4472C4" transform="matrix(-1 0 0 1.00013 839 539.068)"/><text font-family="DengXian,DengXian_MSFontService,sans-serif" font-weight="400" font-size="21" transform="matrix(1 0 0 1.00013 945.671 600)">临界资源，存储所<tspan font-size="21" x="-5.44666" y="25.9967">有的</tspan><tspan font-family="Calibri,Calibri_MSFontService,sans-serif" font-size="21" x="37.22" y="25.9967">TCP</tspan><tspan font-size="21" x="69.4467" y="25.9967">连接，并等</tspan><tspan font-size="21" x="0" y="50.9936">待分配给处理线程</tspan></text><path d="M533.5 724.925C533.5 718.665 538.574 713.59 544.834 713.59L679.167 713.59C685.426 713.59 690.5 718.665 690.5 724.925L690.5 770.263C690.5 776.524 685.426 781.599 679.167 781.599L544.834 781.599C538.574 781.599 533.5 776.524 533.5 770.263Z" stroke="#000000" stroke-width="1.33333" stroke-miterlimit="8" fill="#B4C7E7" fill-rule="evenodd"/><text font-family="DengXian,DengXian_MSFontService,sans-serif" font-weight="400" font-size="21" transform="matrix(1 0 0 1.00013 547.711 742)">该线程分配到<tspan font-size="21" x="15.8867" y="25.9967">的</tspan><tspan font-family="Calibri,Calibri_MSFontService,sans-serif" font-size="21" x="37.22" y="25.9967">TCP</tspan><tspan font-size="21" x="69.4467" y="25.9967">连接</tspan></text><path d="M508.5 864.109 612.5 834.605 716.5 864.109 612.5 893.613Z" stroke="#000000" stroke-width="1.33333" stroke-miterlimit="8" fill="#B4C7E7" fill-rule="evenodd"/><text font-family="SimSun,SimSun_MSFontService,sans-serif" font-weight="400" font-size="21" transform="matrix(1 0 0 1.00013 569.044 873)">Select()</text><path d="M503.5 957.954C503.5 951.694 508.574 946.619 514.834 946.619L709.166 946.619C715.426 946.619 720.5 951.694 720.5 957.954L720.5 1003.29C720.5 1009.55 715.426 1014.63 709.166 1014.63L514.834 1014.63C508.574 1014.63 503.5 1009.55 503.5 1003.29Z" stroke="#000000" stroke-width="1.33333" stroke-miterlimit="8" fill="#B4C7E7" fill-rule="evenodd"/><text font-family="DengXian,DengXian_MSFontService,sans-serif" font-weight="400" font-size="21" transform="matrix(1 0 0 1.00013 537.044 975)">接收客户端数据<tspan font-family="Calibri,Calibri_MSFontService,sans-serif" font-size="21" x="49.8867" y="25.9967">recv</tspan><tspan font-family="Calibri,Calibri_MSFontService,sans-serif" font-size="21" x="86.44" y="25.9967">()</tspan></text><path d="M503.5 1079.14C503.5 1072.78 508.649 1067.63 515 1067.63L709 1067.63C715.351 1067.63 720.5 1072.78 720.5 1079.14L720.5 1125.14C720.5 1131.49 715.351 1136.64 709 1136.64L515 1136.64C508.649 1136.64 503.5 1131.49 503.5 1125.14Z" stroke="#000000" stroke-width="1.33333" stroke-miterlimit="8" fill="#B4C7E7" fill-rule="evenodd"/><text font-family="DengXian,DengXian_MSFontService,sans-serif" font-weight="400" font-size="21" transform="matrix(1 0 0 1.00013 526.378 1096)">向客户端发送请求<tspan font-family="Calibri,Calibri_MSFontService,sans-serif" font-size="21" x="58.1666" y="25.9967">send()</tspan></text><path d="M0.34519-0.938533 165.064 59.6445 164.373 61.5216-0.34519 0.938533ZM164.848 56.3688 170.976 62.8844 162.087 63.877Z" fill="#4472C4" transform="matrix(-1 0 0 1.00013 782.976 651.082)"/><path d="M613 781.098 613 827.392 611 827.392 611 781.098ZM616 826.058 612 834.059 608 826.058Z" fill="#4472C4"/><path d="M613 893.112 613 939.406 611 939.406 611 893.112ZM616 938.072 612 946.073 608 938.072Z" fill="#4472C4"/><path d="M613 1014.13 613 1060.42 611 1060.42 611 1014.13ZM616 1059.09 612 1067.09 608 1059.09Z" fill="#4472C4"/><path d="M0 0 57.9469 0.000104987" stroke="#4472C4" stroke-width="2" stroke-miterlimit="8" fill="none" fill-rule="evenodd" transform="matrix(-1 0 0 1.00013 502.947 1102.14)"/><path d="M0 0 0.000104987 238.337" stroke="#4472C4" stroke-width="2" stroke-miterlimit="8" fill="none" fill-rule="evenodd" transform="matrix(1 0 0 -1.00013 445 1101.48)"/><path d="M445 862.109 500.709 862.109 500.709 864.109 445 864.109ZM499.375 859.108 507.375 863.109 499.375 867.109Z" fill="#4472C4"/><text font-family="DengXian,DengXian_MSFontService,sans-serif" font-weight="400" font-size="24" transform="matrix(1 0 0 1.00013 385.865 980)">循环</text><path d="M0 0 61.4561 0.000104987" stroke="#4472C4" stroke-width="2" stroke-miterlimit="8" fill="none" fill-rule="evenodd" transform="matrix(-1 0 0 1.00013 175.456 597.075)"/><path d="M114 596.606 114 470.059" stroke="#4472C4" stroke-width="2" stroke-miterlimit="8" fill="none" fill-rule="evenodd"/><path d="M114 469.059 168.789 469.059 168.789 471.059 114 471.059ZM167.456 466.059 175.456 470.059 167.456 474.06Z" fill="#4472C4"/><text font-family="DengXian,DengXian_MSFontService,sans-serif" font-weight="400" font-size="24" transform="matrix(1 0 0 1.00013 58.1366 534)">循环</text><path d="M522.5 1201.15C522.5 1194.8 527.649 1189.65 534 1189.65L690 1189.65C696.351 1189.65 701.5 1194.8 701.5 1201.15L701.5 1247.16C701.5 1253.51 696.351 1258.66 690 1258.66L534 1258.66C527.649 1258.66 522.5 1253.51 522.5 1247.16Z" stroke="#000000" stroke-width="1.33333" stroke-miterlimit="8" fill="#B4C7E7" fill-rule="evenodd"/><text font-family="DengXian,DengXian_MSFontService,sans-serif" font-weight="400" font-size="21" transform="matrix(1 0 0 1.00013 569.044 1218)">关闭连接<tspan font-family="Calibri,Calibri_MSFontService,sans-serif" font-size="21" x="14.08" y="25.9967">close()</tspan></text><path d="M1-3.96521e-06 1.00018 46.2874-0.999816 46.2874-1 3.96521e-06ZM4.00018 44.954 0.000209974 52.954-3.99982 44.954Z" fill="#4472C4" transform="matrix(-1 0 0 1.00013 612 1136.14)"/><path d="M1023.5 723.758C1023.5 717.59 1028.5 712.59 1034.67 712.59L1169.33 712.59C1175.5 712.59 1180.5 717.59 1180.5 723.758L1180.5 768.43C1180.5 774.598 1175.5 779.598 1169.33 779.598L1034.67 779.598C1028.5 779.598 1023.5 774.598 1023.5 768.43Z" stroke="#000000" stroke-width="1.33333" stroke-miterlimit="8" fill="#B4C7E7" fill-rule="evenodd"/><text font-family="DengXian,DengXian_MSFontService,sans-serif" font-weight="400" font-size="21" transform="matrix(1 0 0 1.00013 1037.32 740)">该线程分配到<tspan font-size="21" x="15.8866" y="25.9967">的</tspan><tspan font-family="Calibri,Calibri_MSFontService,sans-serif" font-size="21" x="37.22" y="25.9967">TCP</tspan><tspan font-size="21" x="69.4467" y="25.9967">连接</tspan></text><path d="M997.5 862.109 1101.5 832.605 1205.5 862.109 1101.5 891.612Z" stroke="#000000" stroke-width="1.33333" stroke-miterlimit="8" fill="#B4C7E7" fill-rule="evenodd"/><text font-family="SimSun,SimSun_MSFontService,sans-serif" font-weight="400" font-size="21" transform="matrix(1 0 0 1.00013 1058.66 871)">Select()</text><path d="M993.5 956.121C993.5 949.769 998.649 944.619 1005 944.619L1199 944.619C1205.35 944.619 1210.5 949.769 1210.5 956.121L1210.5 1002.13C1210.5 1008.48 1205.35 1013.63 1199 1013.63L1005 1013.63C998.649 1013.63 993.5 1008.48 993.5 1002.13Z" stroke="#000000" stroke-width="1.33333" stroke-miterlimit="8" fill="#B4C7E7" fill-rule="evenodd"/><text font-family="DengXian,DengXian_MSFontService,sans-serif" font-weight="400" font-size="21" transform="matrix(1 0 0 1.00013 1026.66 973)">接收客户端数据<tspan font-family="Calibri,Calibri_MSFontService,sans-serif" font-size="21" x="49.8866" y="25.9967">recv</tspan><tspan font-family="Calibri,Calibri_MSFontService,sans-serif" font-size="21" x="86.4399" y="25.9967">()</tspan></text><path d="M993.5 1078.14C993.5 1071.78 998.649 1066.63 1005 1066.63L1199 1066.63C1205.35 1066.63 1210.5 1071.78 1210.5 1078.14L1210.5 1124.14C1210.5 1130.49 1205.35 1135.64 1199 1135.64L1005 1135.64C998.649 1135.64 993.5 1130.49 993.5 1124.14Z" stroke="#000000" stroke-width="1.33333" stroke-miterlimit="8" fill="#B4C7E7" fill-rule="evenodd"/><text font-family="DengXian,DengXian_MSFontService,sans-serif" font-weight="400" font-size="21" transform="matrix(1 0 0 1.00013 1015.99 1095)">向客户端发送请求<tspan font-family="Calibri,Calibri_MSFontService,sans-serif" font-size="21" x="58.1667" y="25.9967">send()</tspan></text><path d="M1102 779.098 1102 825.391 1100 825.391 1100 779.098ZM1105 824.058 1101 832.059 1097 824.058Z" fill="#4472C4"/><path d="M1102 891.112 1102 937.406 1100 937.406 1100 891.112ZM1105 936.072 1101 944.073 1097 936.072Z" fill="#4472C4"/><path d="M1102 1013.13 1102 1059.42 1100 1059.42 1100 1013.13ZM1105 1058.09 1101 1066.09 1097 1058.09Z" fill="#4472C4"/><path d="M0 0 57.9469 0.000104987" stroke="#4472C4" stroke-width="2" stroke-miterlimit="8" fill="none" fill-rule="evenodd" transform="matrix(-1 0 0 1.00013 992.947 1100.14)"/><path d="M0 0 0.000104987 238.337" stroke="#4472C4" stroke-width="2" stroke-miterlimit="8" fill="none" fill-rule="evenodd" transform="matrix(1 0 0 -1.00013 935 1100.48)"/><path d="M935 861.108 990.709 861.109 990.709 863.109 935 863.109ZM989.375 858.108 997.375 862.109 989.375 866.109Z" fill="#4472C4"/><text font-family="DengXian,DengXian_MSFontService,sans-serif" font-weight="400" font-size="24" transform="matrix(1 0 0 1.00013 875.477 979)">循环</text><path d="M1012.5 1199.15C1012.5 1192.8 1017.65 1187.65 1024 1187.65L1180 1187.65C1186.35 1187.65 1191.5 1192.8 1191.5 1199.15L1191.5 1245.16C1191.5 1251.51 1186.35 1256.66 1180 1256.66L1024 1256.66C1017.65 1256.66 1012.5 1251.51 1012.5 1245.16Z" stroke="#000000" stroke-width="1.33333" stroke-miterlimit="8" fill="#B4C7E7" fill-rule="evenodd"/><text font-family="DengXian,DengXian_MSFontService,sans-serif" font-weight="400" font-size="21" transform="matrix(1 0 0 1.00013 1058.66 1216)">关闭连接<tspan font-family="Calibri,Calibri_MSFontService,sans-serif" font-size="21" x="14.0801" y="25.9967">close()</tspan></text><path d="M1-3.96521e-06 1.00018 46.2874-0.999816 46.2874-1 3.96521e-06ZM4.00018 44.954 0.000209974 52.954-3.99982 44.954Z" fill="#4472C4" transform="matrix(-1 0 0 1.00013 1101 1135.14)"/><path d="M895.286 650.124 1095.02 709.639 1094.45 711.556 894.714 652.041ZM1094.6 706.383 1101.13 712.501 1092.32 714.05Z" fill="#4472C4"/><text font-family="Calibri,Calibri_MSFontService,sans-serif" font-weight="700" font-size="59" transform="matrix(1 0 0 1.00013 807.304 799)">……</text><path d="M284.084 1223.5 283.015 751.763 285.015 751.758 286.084 1223.49ZM280.018 753.104 284 745.094 288.018 753.086Z" fill="#4472C4"/><path d="M284 1222.15 515.631 1222.15 515.631 1224.15 284 1224.15ZM514.298 1219.15 522.298 1223.15 514.298 1227.15Z" fill="#4472C4"/><text font-family="DengXian,DengXian_MSFontService,sans-serif" font-weight="400" font-size="24" transform="matrix(1 0 0 1.00013 162.234 1182)">四次挥手<tspan font-size="24" x="0" y="28.9963">关闭连接</tspan></text><path d="M383.5 533.067 404.25 512.315 404.25 522.691 434.565 522.691 434.565 491.562 630.5 491.562 630.5 574.572 434.565 574.572 434.565 543.444 404.25 543.444 404.25 553.82Z" stroke="#000000" stroke-width="1.33333" stroke-miterlimit="8" fill="#E2F0D9" fill-rule="evenodd"/><text font-family="SimSun,SimSun_MSFontService,sans-serif" font-weight="400" font-size="24" transform="matrix(1 0 0 1.00013 447.954 515)">所有方法封装在<tspan font-size="24" x="6" y="28.9963">EasyTcpClient</tspan><tspan font-size="24" x="72" y="56.9928">类</tspan></text><path d="M969.5 305.038 990.25 284.286 990.25 294.662 1020.56 294.662 1020.56 263.533 1216.5 263.533 1216.5 346.544 1020.56 346.544 1020.56 315.415 990.25 315.415 990.25 325.791Z" stroke="#000000" stroke-width="1.33333" stroke-miterlimit="8" fill="#E2F0D9" fill-rule="evenodd"/><text font-family="SimSun,SimSun_MSFontService,sans-serif" font-weight="400" font-size="24" transform="matrix(1 0 0 1.00013 1034.05 286)">所有方法封装在<tspan font-size="24" x="6" y="28.9963">EasyTcpServer</tspan><tspan font-size="24" x="72" y="56.9928">类</tspan></text><path d="M693.5 1166.65 722 1138.14 722 1152.4 761.791 1152.4 761.791 1109.64 930.209 1109.64 930.209 1152.4 970 1152.4 970 1138.14 998.5 1166.65 970 1195.15 970 1180.9 930.209 1180.9 930.209 1223.65 761.791 1223.65 761.791 1180.9 722 1180.9 722 1195.15Z" stroke="#000000" stroke-width="1.33333" stroke-miterlimit="8" fill="#E2F0D9" fill-rule="evenodd"/><text font-family="DengXian,DengXian_MSFontService,sans-serif" font-weight="400" font-size="24" transform="matrix(1 0 0 1.00013 773.717 1145)">所有方法封装<tspan font-size="24" x="-1.15997" y="28.9963">在</tspan><tspan font-family="Calibri,Calibri_MSFontService,sans-serif" font-size="24" x="22.84" y="28.9963">CellServer</tspan>类<tspan font-size="24" x="60" y="57.9927">中</tspan><tspan font-size="21" x="-112.905" y="-568.928">调用</tspan><tspan font-family="Calibri,Calibri_MSFontService,sans-serif" font-size="21" x="-70.2379" y="-568.928">CellServer</tspan><tspan font-size="21" x="-90.4913" y="-542.932">中的方法</tspan></text><path d="M88.5001 46.3394C88.5001 37.5937 95.5889 30.5039 104.334 30.5039L429.667 30.5039C438.411 30.5039 445.5 37.5937 445.5 46.3394L445.5 109.68C445.5 118.426 438.411 125.516 429.667 125.516L104.334 125.516C95.5889 125.516 88.5001 118.426 88.5001 109.68Z" stroke="#000000" stroke-width="1.33333" stroke-miterlimit="8" fill="#DEEBF7" fill-rule="evenodd"/><text font-family="DengXian,DengXian_MSFontService,sans-serif" font-weight="700" font-size="32" transform="matrix(1 0 0 1.00013 106.672 88)">高性能服务器基本框架</text></g></svg>